<?xml version="1.0" standalone="no"?>
<!DOCTYPE svg PUBLIC "-//W3C//DTD SVG 20010904//EN"
 "http://www.w3.org/TR/2001/REC-SVG-20010904/DTD/svg10.dtd">
<svg version="1.0" xmlns="http://www.w3.org/2000/svg"
 width="431.000000pt" height="431.000000pt" viewBox="0 0 431.000000 431.000000"
 preserveAspectRatio="xMidYMid meet">
<metadata>
Created by potrace 1.14, written by Peter Selinger 2001-2017
</metadata>
<g transform="translate(0.000000,431.000000) scale(0.100000,-0.100000)"
fill="#000000" stroke="none">
<path d="M683 4107 l-50 -53 -62 17 c-33 10 -74 20 -91 24 l-30 7 0 -195 0
-196 53 -15 c28 -8 71 -20 95 -26 l42 -11 0 -1303 0 -1304 -87 24 c-49 13 -91
24 -95 24 -5 0 -8 -42 -8 -94 0 -81 2 -95 17 -100 10 -3 432 -116 938 -251
506 -135 952 -254 990 -265 39 -11 198 -54 355 -96 157 -42 423 -113 592 -158
l308 -82 50 51 50 51 0 1602 c0 881 -4 1602 -9 1602 -4 0 -31 -24 -60 -54
l-51 -55 -72 20 c-40 11 -79 22 -87 25 -10 3 0 19 34 54 27 27 45 53 41 57 -4
4 -31 -17 -60 -47 l-53 -55 -92 24 -92 24 53 54 c29 29 48 53 43 53 -5 0 -32
-23 -61 -51 l-51 -50 -86 22 c-48 12 -87 24 -87 28 0 4 20 27 45 51 25 24 45
49 45 54 0 6 -25 -14 -55 -44 l-55 -54 0 -103 c0 -57 -1 -103 -3 -103 -2 0
-26 6 -53 14 -27 8 -68 20 -91 26 l-43 11 0 102 0 101 53 56 52 55 -57 -55
-58 -54 0 -101 0 -102 -95 25 -95 25 0 106 0 105 48 51 47 50 -52 -50 -53 -49
0 -1504 0 -1504 -30 7 c-17 4 -58 15 -93 24 l-62 18 -3 1504 -2 1503 52 56 53
55 -57 -55 -58 -54 0 -1504 c0 -1304 -2 -1503 -14 -1499 -14 5 -32 11 -138 38
l-38 10 0 1502 0 1501 53 56 52 55 -57 -55 -58 -54 0 -1398 c0 -1017 -3 -1398
-11 -1398 -6 0 -49 10 -95 22 l-84 22 0 1405 0 1405 48 51 47 50 -52 -50 -53
-49 0 -803 c0 -442 -3 -803 -7 -803 -5 1 -46 11 -93 24 l-85 23 -3 804 -2 803
52 53 c29 29 47 53 42 53 -6 0 -34 -24 -61 -53 -28 -29 -54 -52 -59 -51 -5 2
-47 13 -92 25 l-84 22 53 53 c29 30 49 54 44 54 -5 0 -33 -23 -61 -51 l-52
-52 -91 24 -91 24 52 52 c29 29 48 56 44 60 -4 4 -32 -18 -62 -49 l-54 -56
-77 20 c-43 11 -81 22 -86 25 -5 3 13 27 39 54 26 27 44 52 40 56 -4 4 -31
-17 -61 -48 l-53 -55 -92 25 -91 24 53 54 c29 29 48 53 43 53 -5 0 -33 -23
-61 -51 l-52 -52 -84 23 c-45 12 -85 24 -87 26 -3 3 17 27 44 54 27 27 45 53
41 57 -4 4 -32 -18 -62 -49 l-54 -57 -73 20 c-39 11 -80 22 -91 25 -16 5 -10
14 35 60 29 30 48 54 43 54 -6 0 -34 -24 -61 -53z m867 -491 l85 -23 3 -101
c1 -56 -1 -102 -5 -102 -4 0 -47 10 -95 22 l-88 23 0 102 c0 57 3 103 8 103 4
-1 45 -11 92 -24z m283 -276 c4 0 7 -227 7 -504 l0 -505 -91 25 c-50 13 -92
24 -95 24 -2 0 -4 227 -4 504 l0 505 88 -25 c48 -13 90 -24 95 -24z m-1077
-112 l84 -22 0 -1103 c0 -607 -1 -1103 -3 -1103 -3 0 -141 38 -169 46 -17 5
-18 66 -18 1105 0 798 3 1099 11 1099 6 0 49 -10 95 -22z m2607 -99 c38 -10
71 -19 73 -22 2 -2 3 -94 2 -204 l-3 -199 -92 25 -93 24 0 204 0 204 23 -7
c12 -4 53 -15 90 -25z m-2205 -9 l82 -22 0 -103 0 -104 -87 25 c-49 13 -91 24
-95 24 -5 0 -8 48 -8 106 0 85 3 105 13 101 8 -3 51 -15 95 -27z m2398 -42
l84 -22 0 -203 c0 -112 -1 -203 -3 -203 -3 0 -141 38 -169 46 -16 5 -18 24
-18 205 0 139 3 199 11 199 6 0 49 -10 95 -22z m-2203 -10 l87 -23 0 -203 c0
-189 -1 -203 -17 -198 -10 3 -38 10 -63 16 -25 6 -60 16 -77 21 l-33 11 0 199
c0 109 3 199 8 199 4 0 46 -10 95 -22z m1820 -87 l62 -18 3 -102 3 -103 -31 7
c-17 4 -58 14 -93 23 l-62 17 -3 104 -3 103 31 -7 c17 -4 58 -15 93 -24z
m-2223 -5 l85 -23 3 -902 c2 -718 0 -901 -10 -901 -7 0 -49 11 -93 23 l-80 23
-3 902 c-1 496 1 902 5 902 5 0 46 -11 93 -24z m1756 -70 c27 -8 68 -20 92
-26 l42 -11 0 -103 0 -103 -95 25 -95 25 0 104 c0 56 1 103 3 103 2 0 26 -6
53 -14z m-1156 -90 l85 -23 3 -101 c1 -56 -1 -102 -5 -102 -4 0 -47 10 -95 22
l-88 23 0 102 c0 57 3 103 8 103 4 -1 45 -11 92 -24z m-392 -96 l82 -22 0
-103 0 -104 -87 25 c-49 13 -91 24 -95 24 -5 0 -8 48 -8 106 0 85 3 105 13
101 8 -3 51 -15 95 -27z m1548 -414 c27 -8 68 -20 92 -26 l42 -11 0 -903 0
-903 -95 25 -95 25 0 904 c0 496 1 903 3 903 2 0 26 -6 53 -14z m-1548 -186
l82 -22 0 -503 0 -504 -87 25 c-49 13 -91 24 -95 24 -5 0 -8 228 -8 506 0 420
2 505 13 501 8 -3 51 -15 95 -27z m1882 -907 c0 -441 -1 -803 -3 -803 -2 0
-26 6 -53 14 -27 8 -68 20 -91 26 l-43 11 0 803 0 803 95 -25 95 -25 0 -804z
m133 768 l62 -18 3 -702 2 -703 -30 7 c-17 4 -58 14 -93 23 l-62 17 -3 703 -2
704 30 -7 c17 -4 58 -15 93 -24z m-1220 -73 l87 -23 0 -502 c0 -277 -3 -503
-7 -503 -5 1 -46 11 -93 24 l-85 23 -3 501 c-1 276 1 502 5 502 5 0 47 -10 96
-22z m-120 -168 c4 0 7 -182 7 -404 l0 -405 -91 25 c-50 13 -92 24 -95 24 -2
0 -4 182 -4 404 l0 405 88 -25 c48 -13 90 -24 95 -24z m-283 -324 l85 -23 3
-201 c1 -111 -1 -202 -5 -202 -5 0 -47 10 -95 22 l-88 23 0 202 c0 112 3 203
8 203 4 -1 45 -11 92 -24z m-197 -148 l87 -23 0 -103 c0 -94 -2 -103 -17 -98
-10 3 -38 10 -63 16 -25 6 -60 16 -77 21 l-33 11 0 99 c0 54 3 99 8 99 4 0 46
-10 95 -22z m2010 -139 c38 -10 71 -19 73 -22 2 -2 3 -139 2 -303 l-3 -300
-92 25 -93 24 0 304 0 304 23 -7 c12 -4 53 -15 90 -25z m193 -251 l84 -22 0
-203 c0 -112 -1 -203 -3 -203 -3 0 -141 38 -169 46 -16 5 -18 24 -18 205 0
139 3 199 11 199 6 0 49 -10 95 -22z"/>
</g>
</svg>
